<svg enable-background="new 0 0 24 24" viewBox="0 0 24 24" xmlns="http://www.w3.org/2000/svg" xmlns:xlink="http://www.w3.org/1999/xlink"><linearGradient id="a" gradientUnits="userSpaceOnUse" x1="12.5429" x2="23.164223" y1="11.04287" y2="21.664192"><stop offset="0" stop-color="#010101" stop-opacity=".1"/><stop offset="1" stop-color="#010101" stop-opacity="0"/></linearGradient><linearGradient id="b" gradientUnits="userSpaceOnUse" x1="-.652792" x2="24.652792" y1="6.099906" y2="17.900093"><stop offset="0" stop-color="#fff" stop-opacity=".2"/><stop offset="1" stop-color="#fff" stop-opacity="0"/></linearGradient><path d="m21 23h-18c-1.1045696 0-2-.8954296-2-2v-18c0-1.1045696.8954304-2 2-2h18c1.1045704 0 2 .8954304 2 2v18c0 1.1045704-.8954296 2-2 2z" fill="#3c5a9a"/><path d="m21 1h-18c-1.1045532 0-2 .8953857-2 2v.25c0-1.1046143.8954468-2 2-2h18c1.1045532 0 2 .8953857 2 2v-.25c0-1.1046143-.8954468-2-2-2z" fill="#fff" opacity=".2"/><path d="m11 23v-8h-1.979187v-3h1.979187v-2c0-2.2091675 1.7908325-4 4-4h3v3h-3c-.5523071 0-1 .4476929-1 1v2h4l-.5 3h-3.5v8z" fill="#fff"/><path d="m21 22.75h-18c-1.1045532 0-2-.8954468-2-2v.25c0 1.1045532.8954468 2 2 2h18c1.1045532 0 2-.8954468 2-2v-.25c0 1.1045532-.8954468 2-2 2z" fill="#010101" opacity=".1"/><path d="m18 6v3h-3c-.5523071 0-1 .4476929-1 1v2h4l-.5 3h-3.5v8h7c1.1045532 0 2-.8954468 2-2v-10.000061z" fill="url(#a)"/><path d="m21 23h-18c-1.1045696 0-2-.8954296-2-2v-18c0-1.1045696.8954304-2 2-2h18c1.1045704 0 2 .8954304 2 2v18c0 1.1045704-.8954296 2-2 2z" fill="url(#b)"/></svg>