<svg xmlns="http://www.w3.org/2000/svg" width="193.379" height="51.886" viewBox="0 0 193.379 51.886"><defs><style>.a{fill:#010101;stroke:#010101;stroke-miterlimit:10;stroke-width:0.75px;}</style></defs><g transform="translate(-183.94 -244.255)"><path d="M393.166,270.177a9.212,9.212,0,0,1-4.521-.087c-2.456-.62-3.948-2.5-4.193-5.366-.221-2.791-.288-5.595-.442-8.39a12.887,12.887,0,0,0-.253-2.176,5.318,5.318,0,0,0-5.768-4.268c-3.017.118-5.3,1.927-5.753,4.647a13.119,13.119,0,0,0-.111,2.728c.17,4.079.395,8.153.565,12.24.024.529-.02,1.062-.032,1.694l-5.528.261c-.036-.738-.067-1.39-.1-2.037q-.28-5.922-.561-11.865c-.024-.486-.036-.975-.091-1.457-.241-2.2-1.1-4.019-3.269-4.888a6.317,6.317,0,0,0-6.554.916,5.8,5.8,0,0,0-2.045,5.228c.186,4.2.395,8.4.588,12.6.032.651.063,1.307.107,2.183l-2.882.134-2.637.126-1.228-25.9a37.989,37.989,0,0,1,5.413-.229c.107.9.205,1.714.344,2.89a10.528,10.528,0,0,1,8.41-4.031,9.3,9.3,0,0,1,8.086,4.383c.367-.446.667-.79.955-1.184a10.684,10.684,0,0,1,12.338-3.317,8.388,8.388,0,0,1,5.31,6.712,47.479,47.479,0,0,1,.419,5.085c.1,1.52.146,3.044.225,4.564.142,2.709.359,2.973,2.969,3.656Z" transform="translate(-99.563 0)"/><path d="M622.79,275.338l5.156,1.6a10.4,10.4,0,0,1-.2,1.078c-2.274,7.328-4.5,14.668-6.854,21.972-1.461,4.545-4.56,7.36-9.425,7.77a12.393,12.393,0,0,1-10.972-4.43,10.457,10.457,0,0,1-2.4-7.415,23.747,23.747,0,0,1,5.014,1.453c.292.1.482.64.624,1.011a6.279,6.279,0,0,0,5.528,4.169,5.4,5.4,0,0,0,5.528-2.543,23.822,23.822,0,0,0,1.579-3.692l-.3-.237c-.292.115-.6.209-.88.344-4.027,1.935-7.81,1.283-11.205-1.362-3.159-2.468-3.9-5.9-2.855-9.642,1.185-4.181,2.539-8.291,3.818-12.453.28-.9.565-1.8.888-2.855l5.18,1.611c-.154.608-.272,1.184-.442,1.729q-1.579,5.133-3.159,10.226c-.142.454-.292.9-.395,1.366-1.315,5.247,2.622,7.746,6.341,7.672a5.339,5.339,0,0,0,4.864-3.088,13.306,13.306,0,0,0,.837-2.156c1.074-3.4,2.128-6.811,3.186-10.218Z" transform="translate(-250.628 -15.647)"/><path d="M492.025,264.619a10.983,10.983,0,0,1-3.628,4.248,14.961,14.961,0,0,1-18.592-1.042c-4.225-4.011-5.275-8.963-3.451-14.415,1.773-5.314,5.674-8.291,11.174-8.971a13.744,13.744,0,0,1,15.379,10.309,12.536,12.536,0,0,1-.209,6.969l-21.123-2.6a10.866,10.866,0,0,0,.158,1.552c1.417,5.3,8.339,7.624,12.946,4.24a3.972,3.972,0,0,1,3.34-.79C489.262,264.331,490.521,264.433,492.025,264.619Zm-4.912-8.374a7.329,7.329,0,0,0-6.455-6.665,7.428,7.428,0,0,0-8.319,4.845Z" transform="translate(-170.389 -0.04)"/><path d="M200.325,295.426l-5.306,1.7q-5.551-17.305-11.079-34.571a12.782,12.782,0,0,1,5.251-1.773l4.248,13.262c.395-.679.628-1,.813-1.346a11.17,11.17,0,0,1,11.715-5.626,9.3,9.3,0,0,1,7.281,6.475c.936,2.574,1.7,5.212,2.551,7.818.75,2.294,1.1,2.531,3.676,2.444L221,288.544a6.128,6.128,0,0,1-9.476-2.274c-.861-1.939-1.406-4.019-2.1-6.033-.415-1.208-.758-2.448-1.263-3.621a5.816,5.816,0,0,0-6.317-3.628c-3.6.426-7.529,3.5-5.887,8.8,1.2,3.9,2.48,7.774,3.723,11.663Z" transform="translate(0 -10.001)"/><path d="M542.792,273.042c4.493,3.553,9.215,4.185,14.672,2.2a33.112,33.112,0,0,0-.9,3.782c-.205,1.718-1.216,2.333-2.764,2.535-5.78.746-10.866-.624-15.051-4.825-.253-.253-.513-.5-.727-.711-1.627.166-2.586,2.077-4.572,1.413a42.7,42.7,0,0,1,1.635-6.151c.146-.426.79-.734,1.232-1q6.917-4.1,13.858-8.161c.513-.3,1.015-.632,1.887-1.184-1.69-.478-3.052-.869-4.418-1.248s-2.823-.762-4.236-1.141l-4.375-1.184a44.952,44.952,0,0,1,1.283-5.243l20.8,5.595a24.023,24.023,0,0,1-1.346,5.022c-.166.426-.79.711-1.256.983q-7.012,4.146-14.044,8.236C543.964,272.252,543.479,272.6,542.792,273.042Z" transform="translate(-211.514 -4.76)"/><path class="a" d="M307.26,356.46h1.015v6.215h3.842v.884H307.26Z" transform="translate(-74.63 -67.903)"/><path class="a" d="M324.618,363.041a3.494,3.494,0,0,1-1.354-1.3,3.735,3.735,0,0,1,0-3.711,3.478,3.478,0,0,1,1.354-1.307,4.209,4.209,0,0,1,3.865,0,3.49,3.49,0,0,1,1.346,1.3,3.782,3.782,0,0,1,0,3.723,3.463,3.463,0,0,1-1.346,1.3,4.209,4.209,0,0,1-3.865,0Zm3.34-.79a2.61,2.61,0,0,0,.987-.979,2.882,2.882,0,0,0,0-2.788,2.582,2.582,0,0,0-.987-.979,2.764,2.764,0,0,0-1.4-.355,2.851,2.851,0,0,0-1.417.355,2.579,2.579,0,0,0-.995.979,2.882,2.882,0,0,0,0,2.788,2.606,2.606,0,0,0,.995.979,2.851,2.851,0,0,0,1.417.355,2.763,2.763,0,0,0,1.4-.351Z" transform="translate(-84.016 -67.776)"/><path class="a" d="M351.825,356.46l-3.115,7.107h-1l-3.127-7.107h1.1l2.555,5.832,2.578-5.832Z" transform="translate(-97.215 -67.903)"/><path class="a" d="M372.423,362.663v.884H367.27V356.44H372.3v.88h-4.011V359.5h3.553v.865h-3.553v2.29Z" transform="translate(-110.946 -67.891)"/><path class="a" d="M396.515,357.353v2.491h3.553v.873h-3.553v2.87H395.5V356.48h5.01v.88Z" transform="translate(-128.03 -67.916)"/><path class="a" d="M414.044,363.041a3.522,3.522,0,0,1-1.354-1.3,3.763,3.763,0,0,1,0-3.711,3.5,3.5,0,0,1,1.354-1.307,4.209,4.209,0,0,1,3.865,0,3.5,3.5,0,0,1,1.35,1.3,3.81,3.81,0,0,1,0,3.723,3.474,3.474,0,0,1-1.35,1.3A4.209,4.209,0,0,1,414.044,363.041Zm3.344-.79a2.63,2.63,0,0,0,.983-.979,2.882,2.882,0,0,0,0-2.788,2.6,2.6,0,0,0-.983-.979,2.8,2.8,0,0,0-1.406-.355,2.835,2.835,0,0,0-1.414.355,2.579,2.579,0,0,0-.995.979,2.882,2.882,0,0,0,0,2.788,2.607,2.607,0,0,0,.995.979,2.835,2.835,0,0,0,1.414.355,2.8,2.8,0,0,0,1.406-.351Z" transform="translate(-138.137 -67.776)"/><path class="a" d="M442.046,363.538l-1.532-2.179c-.19,0-.34.02-.446.02h-1.757v2.16H437.3v-7.107h2.764a3.281,3.281,0,0,1,2.172.659,2.235,2.235,0,0,1,.79,1.812,2.369,2.369,0,0,1-.395,1.4,2.258,2.258,0,0,1-1.157.841l1.686,2.369Zm-.521-3.439a1.642,1.642,0,0,0,0-2.369,2.306,2.306,0,0,0-1.473-.395h-1.725v3.194h1.725a2.282,2.282,0,0,0,1.473-.43Z" transform="translate(-153.327 -67.883)"/><path class="a" d="M467,356.46h1.015v6.215h3.846v.884H467Z" transform="translate(-171.3 -67.903)"/><path class="a" d="M484.354,363.041a3.522,3.522,0,0,1-1.354-1.3,3.763,3.763,0,0,1,0-3.711,3.5,3.5,0,0,1,1.354-1.307,4.209,4.209,0,0,1,3.865,0,3.474,3.474,0,0,1,1.35,1.3,3.81,3.81,0,0,1,0,3.723,3.447,3.447,0,0,1-1.35,1.3,4.209,4.209,0,0,1-3.865,0Zm3.344-.79a2.63,2.63,0,0,0,.983-.979,2.882,2.882,0,0,0,0-2.788,2.6,2.6,0,0,0-.983-.979,2.8,2.8,0,0,0-1.406-.355,2.835,2.835,0,0,0-1.413.355,2.579,2.579,0,0,0-1,.979,2.883,2.883,0,0,0,0,2.788,2.607,2.607,0,0,0,.995.979,2.835,2.835,0,0,0,1.413.355,2.8,2.8,0,0,0,1.406-.351Z" transform="translate(-180.686 -67.776)"/><path class="a" d="M507.972,363.041a3.455,3.455,0,0,1-1.342-1.3,3.782,3.782,0,0,1,0-3.723,3.489,3.489,0,0,1,1.346-1.3,3.976,3.976,0,0,1,1.927-.47,4.044,4.044,0,0,1,1.524.28,3.159,3.159,0,0,1,1.185.825l-.659.64a2.653,2.653,0,0,0-2-.841,2.9,2.9,0,0,0-1.429.355,2.563,2.563,0,0,0-1,.979,2.882,2.882,0,0,0,0,2.788,2.587,2.587,0,0,0,1,.979,2.9,2.9,0,0,0,1.429.355,2.653,2.653,0,0,0,2-.853l.659.64a3.158,3.158,0,0,1-1.185.829,3.982,3.982,0,0,1-1.524.284A3.908,3.908,0,0,1,507.972,363.041Z" transform="translate(-194.986 -67.776)"/><path class="a" d="M530.661,361.77h-3.775l-.79,1.777H525.05l3.218-7.107h1l3.226,7.107H531.43Zm-.355-.809-1.532-3.478-1.532,3.478Z" transform="translate(-206.43 -67.891)"/><path class="a" d="M548.66,356.46h1.015v6.215h3.858v.884h-4.856Z" transform="translate(-220.718 -67.903)"/><path d="M270.48,270.438c-1.3-7.877,3.8-14.822,11.845-16.164s15.142,3.6,16.46,11.45-3.822,14.921-11.912,16.231S271.778,278.327,270.48,270.438ZM286,276.36a8.148,8.148,0,0,0,6.83-9.511A8.291,8.291,0,1,0,286,276.36Z" transform="translate(-52.249 -5.93)"/></g></svg>