<svg xmlns="http://www.w3.org/2000/svg" width="134.817" height="33.404" viewBox="0 0 134.817 33.404"><defs><style>.a{fill:#060606;}</style></defs><g transform="translate(-183.94 -244.255)"><path class="a" d="M379.628,262.327a6.422,6.422,0,0,1-3.152-.061,3.851,3.851,0,0,1-2.923-3.741c-.154-1.946-.2-3.9-.308-5.849a8.982,8.982,0,0,0-.176-1.517,3.708,3.708,0,0,0-4.022-2.976,3.966,3.966,0,0,0-4.011,3.24,9.144,9.144,0,0,0-.077,1.9c.118,2.843.275,5.684.394,8.533.017.369-.014.74-.022,1.181l-3.854.182c-.025-.515-.047-.969-.069-1.42q-.2-4.129-.391-8.272c-.017-.339-.025-.68-.063-1.016a3.737,3.737,0,0,0-2.279-3.408,4.4,4.4,0,0,0-4.569.639,4.043,4.043,0,0,0-1.426,3.644c.129,2.926.275,5.855.41,8.781.022.454.044.911.074,1.522l-2.009.094-1.839.088-.856-18.054a26.485,26.485,0,0,1,3.774-.16c.074.625.143,1.195.239,2.015a7.339,7.339,0,0,1,5.863-2.81,6.484,6.484,0,0,1,5.637,3.055c.256-.311.465-.551.666-.826a7.448,7.448,0,0,1,8.6-2.312,5.848,5.848,0,0,1,3.7,4.679,33.107,33.107,0,0,1,.292,3.545c.069,1.06.1,2.122.157,3.182.1,1.888.25,2.073,2.07,2.549Z" transform="translate(-119.234 0)"/><path class="a" d="M615.308,273.754l3.595,1.118a7.264,7.264,0,0,1-.14.751c-1.586,5.109-3.138,10.226-4.779,15.318a7.175,7.175,0,0,1-6.57,5.417,8.64,8.64,0,0,1-7.649-3.088,7.291,7.291,0,0,1-1.676-5.169,16.557,16.557,0,0,1,3.5,1.013c.2.072.336.446.435.7a4.378,4.378,0,0,0,3.854,2.907,3.767,3.767,0,0,0,3.854-1.773,16.6,16.6,0,0,0,1.1-2.574l-.209-.165c-.2.08-.416.146-.614.24a7.009,7.009,0,0,1-7.812-.95,5.918,5.918,0,0,1-1.99-6.722c.826-2.915,1.77-5.78,2.662-8.682.2-.63.394-1.258.619-1.99l3.611,1.123c-.107.424-.19.826-.308,1.206q-1.1,3.578-2.2,7.129c-.1.317-.2.63-.275.952-.917,3.658,1.828,5.4,4.421,5.348a3.722,3.722,0,0,0,3.391-2.153,9.285,9.285,0,0,0,.583-1.5c.749-2.373,1.484-4.748,2.221-7.124Z" transform="translate(-300.145 -18.738)"/><path class="a" d="M483.991,258.472a7.658,7.658,0,0,1-2.53,2.962,10.431,10.431,0,0,1-12.962-.727,9.024,9.024,0,0,1-2.406-10.05,8.8,8.8,0,0,1,7.79-6.254,9.582,9.582,0,0,1,10.721,7.187,8.74,8.74,0,0,1-.146,4.858l-14.726-1.814a7.567,7.567,0,0,0,.11,1.082c.988,3.7,5.814,5.315,9.026,2.956a2.769,2.769,0,0,1,2.329-.551C482.064,258.271,482.942,258.343,483.991,258.472Zm-3.424-5.838a5.11,5.11,0,0,0-4.5-4.646,5.179,5.179,0,0,0-5.8,3.377Z" transform="translate(-204.054 -0.048)"/><path class="a" d="M195.363,284.934l-3.7,1.184q-3.87-12.065-7.724-24.1a8.911,8.911,0,0,1,3.661-1.236l2.962,9.246c.275-.473.438-.7.567-.939a7.787,7.787,0,0,1,8.167-3.923,6.482,6.482,0,0,1,5.076,4.514c.652,1.795,1.184,3.633,1.778,5.45.523,1.6.768,1.764,2.563,1.7l1.062,3.3a4.272,4.272,0,0,1-6.606-1.586c-.6-1.352-.98-2.8-1.462-4.206-.289-.842-.529-1.707-.881-2.524a4.055,4.055,0,0,0-4.4-2.53c-2.513.3-5.249,2.439-4.1,6.133.84,2.717,1.729,5.42,2.6,8.131Z" transform="translate(0 -11.976)"/><path class="a" d="M539.963,266.706a9.834,9.834,0,0,0,10.229,1.533,23.108,23.108,0,0,0-.628,2.637c-.143,1.2-.848,1.627-1.927,1.767a11.848,11.848,0,0,1-10.493-3.364c-.176-.176-.358-.35-.506-.5-1.134.116-1.8,1.448-3.188.985a29.745,29.745,0,0,1,1.14-4.289c.1-.3.551-.512.859-.7q4.823-2.857,9.662-5.69c.358-.212.707-.44,1.316-.826-1.178-.333-2.128-.606-3.08-.87s-1.968-.531-2.954-.8l-3.05-.826a31.322,31.322,0,0,1,.895-3.655l14.5,3.9a16.735,16.735,0,0,1-.939,3.5c-.116.3-.55.5-.875.685q-4.888,2.89-9.791,5.742C540.78,266.156,540.442,266.4,539.963,266.706Z" transform="translate(-253.303 -5.7)"/><path class="a" d="M270.418,265.476a10,10,0,1,1,11.429,8.029A9.674,9.674,0,0,1,270.418,265.476Zm10.818,4.129A5.681,5.681,0,0,0,286,262.974a5.78,5.78,0,1,0-4.762,6.631Z" transform="translate(-62.572 -7.102)"/></g></svg>